<?xml version="1.0" encoding="UTF-8" standalone="no"?>
<!DOCTYPE svg PUBLIC "-//W3C//DTD SVG 1.1//EN" "http://www.w3.org/Graphics/SVG/1.1/DTD/svg11.dtd">
<svg width="100%" height="100%" viewBox="0 0 323 361" version="1.1" xmlns="http://www.w3.org/2000/svg" xmlns:xlink="http://www.w3.org/1999/xlink" xml:space="preserve" xmlns:serif="http://www.serif.com/" style="fill-rule:evenodd;clip-rule:evenodd;stroke-linecap:round;stroke-linejoin:round;stroke-miterlimit:1.5;">
    <g transform="matrix(1,0,0,1,-262.67879,-149.481539)">
        <path d="M335.038,186.159L416.227,150.764C418.635,149.714 421.372,149.721 423.774,150.784L503.797,186.18C506.4,187.331 508.34,189.603 509.071,192.354L584.4,476.089C585.66,480.838 583.045,485.755 578.402,487.365L516.367,508.868C514.418,509.543 512.301,509.558 510.343,508.91L445.565,487.462C442.617,486.486 440.342,484.114 439.49,481.127L428.428,442.348L420.061,480.428C419.339,483.712 416.916,486.359 413.708,487.367L345.026,508.953C343.23,509.518 341.306,509.529 339.503,508.986L269.855,487.991C265.115,486.562 262.3,481.697 263.424,476.876L329.648,192.633C330.321,189.745 332.32,187.345 335.038,186.159Z" style="stroke:black;stroke-width:1px;"/>
    </g>
    <g transform="matrix(-1,0,0,1,577.833825,-149.481539)">
        <path d="M347.855,172.573L335.328,177.869C333.232,178.755 331.382,180.138 329.938,181.898L325.766,186.983C323.187,190.126 321.764,194.059 321.734,198.125L321.646,210.408C321.63,212.626 322.503,214.758 324.07,216.328C325.637,217.898 327.767,218.774 329.985,218.762L350.792,218.65C355.32,218.626 358.991,214.975 359.042,210.448L359.379,180.306C359.41,177.509 358.03,174.884 355.707,173.326C353.384,171.767 350.432,171.484 347.855,172.573Z" style="stroke:black;stroke-width:1px;"/>
    </g>
    <g transform="matrix(1,0,0,1,-262.67879,-149.481539)">
        <path d="M359.379,180.306L359.042,210.448C358.991,214.975 355.32,218.626 350.792,218.65L329.985,218.762C327.767,218.774 325.637,217.898 324.07,216.328C322.503,214.758 321.63,212.626 321.646,210.408L321.734,198.125C321.764,194.059 323.187,190.126 325.766,186.983L329.938,181.898C331.382,180.138 333.232,178.755 335.328,177.869L347.855,172.573C350.432,171.484 353.384,171.767 355.707,173.326C358.03,174.884 359.41,177.509 359.379,180.306Z" style="stroke:black;stroke-width:1px;"/>
    </g>
</svg>
